<svg viewBox="0 0 183 30" xmlns="http://www.w3.org/2000/svg">
                        <path fill-rule="evenodd" clip-rule="evenodd" d="M59.6797 3.05556V15.6676L59.687 28.4045C59.6907 29.1284 59.8965 29.4004 60.5359 29.4004C61.5757 29.3973 62.6158 29.4027 63.6558 29.408C66.3941 29.422 69.1318 29.436 71.8617 29.2975C76.5324 29.0623 80.8871 25.0751 81.4383 20.4228C81.7317 17.5621 81.7809 14.6817 81.5853 11.8127C81.295 6.69731 76.7823 2.25078 71.6633 2.01559C69.1648 1.90098 66.661 1.90993 64.1568 1.91888C63.0478 1.92285 61.9387 1.92681 60.8299 1.92004C59.8634 1.91269 59.6797 2.10011 59.6797 3.05556ZM66.91 23.9229C66.3416 23.9145 65.7688 23.906 65.191 23.906L65.202 7.43178H66.7381C67.1603 7.43619 67.5836 7.43167 68.0068 7.42715C68.9943 7.4166 69.9819 7.40606 70.9568 7.50895C73.6725 7.8033 75.7312 10.0948 75.7341 12.8264C75.7635 14.7079 75.7635 16.587 75.7341 18.4636C75.7541 21.3398 73.5127 23.7252 70.6408 23.884C69.4163 23.96 68.1743 23.9416 66.91 23.9229Z" class="logo-svg" fill=""></path>
                        <path fill-rule="evenodd" clip-rule="evenodd" d="M158.289 10.474C156.183 5.33022 151.183 1.96342 145.625 1.94546C138.053 1.91087 131.886 8.01865 131.848 15.5901C131.812 21.1484 135.131 26.18 140.254 28.3359C145.377 30.4919 151.295 29.3469 155.244 25.4355C159.193 21.5241 160.395 15.6178 158.289 10.474ZM148.729 8.07664C151.812 9.34527 153.827 12.347 153.833 15.6811H153.818C153.824 20.2176 150.163 23.9064 145.627 23.9347C142.293 23.9481 139.279 21.9508 137.993 18.875C136.706 15.7992 137.4 12.2513 139.751 9.88693C142.102 7.5226 145.646 6.808 148.729 8.07664Z" class="logo-svg" fill=""></path>
                        <path fill-rule="evenodd" clip-rule="evenodd" d="M129.761 15.6696C129.756 8.08706 123.607 1.9433 116.024 1.94532C112.378 1.9414 108.88 3.38963 106.304 5.96996C103.728 8.5503 102.285 12.0503 102.295 15.6965C102.305 23.279 108.459 29.4184 116.041 29.4109C123.624 29.4035 129.765 23.2521 129.761 15.6696ZM115.972 7.45684C120.516 7.42374 124.228 11.0778 124.267 15.622C124.287 17.8118 123.434 19.9194 121.896 21.4782C120.358 23.037 118.262 23.9184 116.072 23.9271C111.527 23.9492 107.824 20.2862 107.797 15.742C107.769 11.1977 111.427 7.48994 115.972 7.45684Z" class="logo-svg" fill=""></path>
                        <path d="M166.633 12.51L174.207 3.99916C174.696 3.45161 175.206 2.92243 175.677 2.35284C176.006 1.92651 176.524 1.68894 177.062 1.71709C178.716 1.71709 180.369 1.71709 182.023 1.71709C182.249 1.75819 182.468 1.8351 182.67 1.94493C182.601 2.14523 182.506 2.33553 182.387 2.51085C179.102 6.21998 175.81 9.9242 172.513 13.6235C172.391 13.7632 172.285 13.9102 172.145 14.0902L175.592 18.8344C177.895 22.0021 180.197 25.171 182.497 28.3412C182.604 28.5435 182.68 28.7601 182.725 28.9843C182.516 29.0798 182.295 29.1454 182.067 29.179C180.498 29.179 178.925 29.179 177.352 29.179C176.652 29.229 175.98 28.8903 175.603 28.2971C172.825 24.4385 170.032 20.5934 167.225 16.7618C167.074 16.5524 166.912 16.3539 166.644 16.0269V16.839C166.644 20.5726 166.644 24.3075 166.644 28.0435C166.644 28.999 166.453 29.1864 165.501 29.1901C164.358 29.1901 163.215 29.1901 162.073 29.1901C161.371 29.1901 161.146 28.9733 161.146 28.2897C161.146 19.7347 161.146 11.181 161.146 2.62845C161.146 1.91921 161.334 1.73914 162.065 1.73547H165.619C166.468 1.73547 166.644 1.90451 166.644 2.78279C166.644 5.74225 166.644 8.70171 166.644 11.6612L166.633 12.51Z" class="logo-svg" fill=""></path>
                        <path d="M50.6161 15.148C51.3206 15.3822 52.0071 15.6671 52.6704 16.0005C54.3153 16.9493 55.3762 18.6585 55.4963 20.5536C55.8638 24.5261 53.9418 27.5358 50.1127 28.7448C46.787 29.7995 43.4759 29.7186 40.3119 28.0797C38.3716 27.0764 37.192 25.4448 36.571 23.3832C36.3946 22.7989 36.571 22.4903 37.17 22.3469C38.5958 22.0052 40.0326 21.7002 41.4548 21.34C41.6823 21.2422 41.9414 21.2499 42.1626 21.3612C42.3838 21.4725 42.5444 21.676 42.6013 21.917C42.9688 22.8541 43.4943 23.6625 44.538 23.9712C45.6144 24.3097 46.7689 24.3097 47.8453 23.9712C49.1866 23.5376 49.9142 22.3065 49.8701 20.6234C49.8334 19.2564 49.1609 18.3193 47.7351 18.0253C46.59 17.8405 45.4331 17.7385 44.2734 17.7203C43.4355 17.6726 43.2591 17.5366 43.2555 16.7171C43.2555 15.7176 43.2555 14.718 43.2555 13.7184C43.2555 13.0901 43.4796 12.8953 44.1007 12.8585C45.084 12.8445 46.0657 12.7721 47.0405 12.6417C48.6905 12.3514 49.488 11.3114 49.4218 9.75331C49.3667 8.44508 48.2495 7.34998 46.7686 7.15154C45.0745 6.92003 43.9206 7.46022 43.0938 8.94118C42.9111 9.36786 42.431 9.5823 41.9913 9.4336C40.5214 9.12492 39.0772 8.83093 37.622 8.52225C36.751 8.33851 36.5783 8.02615 36.909 7.18461C37.6427 5.15774 39.2356 3.55941 41.26 2.81892C44.5416 1.58786 47.8747 1.54743 51.0939 2.96592C54.8201 4.60121 56.2937 9.34908 54.2028 12.7336C53.3869 14.0676 52.1485 14.7878 50.6161 15.148Z" class="logo-svg" fill=""></path>
                        <path d="M91.2888 23.9337C93.9237 23.9337 96.4556 23.9558 98.9839 23.9337C100.019 23.8866 101.009 24.3647 101.615 25.2052C102.53 26.3812 103.489 27.5204 104.419 28.6853C104.529 28.8286 104.647 29.0822 104.588 29.2071C104.529 29.3321 104.261 29.4202 104.081 29.4202C98.2673 29.4202 92.4513 29.4202 86.6328 29.4202C86.4048 29.4484 86.1764 29.371 86.0125 29.21C85.8486 29.0489 85.7671 28.8219 85.7913 28.5934C85.7913 28.4501 85.7913 28.3068 85.7913 28.1635V3.17466C85.7913 2.07221 85.9236 1.94727 87.0224 1.94727C88.1211 1.94727 89.2272 1.94727 90.3297 1.94727C91.1161 1.94727 91.2925 2.13468 91.2925 2.93212V23.9337H91.2888Z" class="logo-svg" fill=""></path>
                        <path d="M24.723 18.392C23.0068 18.4876 21.3678 18.6125 19.7252 18.6493C18.9889 18.6419 18.3153 18.2332 17.9686 17.5836C16.4987 15.1851 15.0471 12.7781 13.614 10.3626C13.2567 9.75041 12.9448 9.11297 12.6806 8.45532C12.2873 7.48149 12.4858 6.53339 12.9525 5.62938C13.6213 4.32482 14.2901 3.02026 14.9773 1.72672C15.0912 1.51358 14.9773 1.72672 15.3632 1.04688C15.6076 1.24021 15.8187 1.47236 15.9879 1.73407C17.8547 5.2619 19.7142 8.79218 21.5663 12.3249C22.5266 14.1427 23.4809 15.9642 24.429 17.7894C24.5355 17.9621 24.6164 18.1422 24.723 18.392Z" class="logo-svg" fill=""></path>
                        <path d="M10.5467 15.9687C10.8958 16.5493 11.2191 17.1483 11.594 17.7106C12.2652 18.6462 12.3158 19.8914 11.7226 20.8783C10.4842 23.1714 9.24577 25.4645 7.9706 27.7392C7.47904 28.7066 6.53219 29.3604 5.45335 29.4774C3.7813 29.6648 2.10558 29.8191 0.308594 29.9992C3.18231 24.5384 5.9862 19.2173 8.80846 13.8594L9.96236 15.2668L10.5467 15.9687Z" class="logo-svg" fill=""></path>
                        <path d="M30.0163 29.5731L12.5977 29.9038C12.7153 29.7054 12.7887 29.5363 12.888 29.4151C13.6744 28.3126 14.4498 27.2102 15.2619 26.1555C15.9098 25.242 16.9569 24.6951 18.0768 24.6856C20.708 24.6635 23.3355 24.6856 25.9667 24.6856C26.268 24.6856 26.7751 24.6856 27.0691 24.7297C27.8408 24.7958 28.1201 25.2625 28.4178 25.9681C28.9286 27.1146 29.4504 28.2796 30.0163 29.5731Z" class="logo-svg" fill=""></path>
                        <path d="M0.102895 29.6396C0.0257238 28.4012 0.062472 26.4535 0 25.2298C0.00600686 25.0488 0.0564913 24.8721 0.146993 24.7153C2.46948 20.2467 4.79687 15.783 7.12916 11.3243C7.18428 11.2177 7.2541 11.1148 7.39007 10.8906C7.75755 11.8167 8.12503 12.6435 8.39697 13.4961C8.46312 13.7055 8.24263 14.0216 8.11401 14.2678C6.21045 17.8936 4.30199 21.5182 2.38863 25.1416" class="logo-svg" fill=""></path>
                        <path d="M12.3565 29.4958C12.1324 28.6359 11.989 27.7576 11.8016 27.008C11.793 26.8284 11.8506 26.6519 11.9633 26.5119C12.7203 25.4094 13.4884 24.3437 14.2527 23.267C14.7383 22.4921 15.5987 22.0332 16.5127 22.0617C18.9381 22.0764 21.3635 22.0421 23.7889 21.9588C24.9671 21.858 26.1025 22.4257 26.7288 23.4287C26.9272 23.7337 27.1661 24.013 27.3167 24.2114C24.4871 24.2114 21.6134 24.2114 18.7397 24.182C17.0317 24.091 15.412 24.9467 14.5247 26.409C13.8999 27.3902 13.1282 28.4375 12.3565 29.4958Z" class="logo-svg" fill=""></path>
                        <path d="M16.6409 16.7048C16.6409 16.7048 16.494 16.5101 16.369 16.3116C14.844 13.8605 12.8669 10.5385 11.1765 7.67947C10.493 6.51823 10.3056 5.33126 10.978 4.08182C11.6505 2.83238 12.2312 1.66011 12.8596 0.44742C12.9333 0.239853 13.104 0.0815481 13.3165 0.023653C13.529 -0.0342422 13.7564 0.0156122 13.9253 0.157109L14.9652 0.770804C14.0833 2.52737 13.194 4.23984 12.3561 5.9817C11.7498 7.23849 12.0474 8.48426 12.7015 9.60141C14.0428 11.9018 15.5752 14.4264 16.9423 16.6313L17.6772 17.7338L16.6409 16.7048Z" class="logo-svg" fill=""></path>
                        <path d="M10.4202 15.6362C9.79625 14.9327 9.2099 14.1967 8.66366 13.4313L7.9287 11.7262C7.82948 11.5608 7.58694 11.0905 7.50977 10.9141L8.72613 12.6817C8.88047 12.9499 9.65586 14.3353 10.4202 15.6362Z" class="logo-svg" fill=""></path>
                        <path fill-rule="evenodd" clip-rule="evenodd" d="M59.6797 3.05556V15.6676L59.687 28.4045C59.6907 29.1284 59.8965 29.4004 60.5359 29.4004C61.5757 29.3973 62.6158 29.4027 63.6558 29.408C66.3941 29.422 69.1318 29.436 71.8617 29.2975C76.5324 29.0623 80.8871 25.0751 81.4383 20.4228C81.7317 17.5621 81.7809 14.6817 81.5853 11.8127C81.295 6.69731 76.7823 2.25078 71.6633 2.01559C69.1648 1.90098 66.661 1.90993 64.1568 1.91888C63.0478 1.92285 61.9387 1.92681 60.8299 1.92004C59.8634 1.91269 59.6797 2.10011 59.6797 3.05556ZM66.91 23.9229C66.3416 23.9145 65.7688 23.906 65.191 23.906L65.202 7.43178H66.7381C67.1603 7.43619 67.5836 7.43167 68.0068 7.42715C68.9943 7.4166 69.9819 7.40606 70.9568 7.50895C73.6725 7.8033 75.7312 10.0948 75.7341 12.8264C75.7635 14.7079 75.7635 16.587 75.7341 18.4636C75.7541 21.3398 73.5127 23.7252 70.6408 23.884C69.4163 23.96 68.1743 23.9416 66.91 23.9229Z" class="logo-svg" fill=""></path>
                        <path fill-rule="evenodd" clip-rule="evenodd" d="M158.289 10.474C156.183 5.33022 151.183 1.96342 145.625 1.94546C138.053 1.91087 131.886 8.01865 131.848 15.5901C131.812 21.1484 135.131 26.18 140.254 28.3359C145.377 30.4919 151.295 29.3469 155.244 25.4355C159.193 21.5241 160.395 15.6178 158.289 10.474ZM148.729 8.07664C151.812 9.34527 153.827 12.347 153.833 15.6811H153.818C153.824 20.2176 150.163 23.9064 145.627 23.9347C142.293 23.9481 139.279 21.9508 137.993 18.875C136.706 15.7992 137.4 12.2513 139.751 9.88693C142.102 7.5226 145.646 6.808 148.729 8.07664Z" class="logo-svg" fill=""></path>
                        <path fill-rule="evenodd" clip-rule="evenodd" d="M129.761 15.6696C129.756 8.08706 123.607 1.9433 116.024 1.94532C112.378 1.9414 108.88 3.38963 106.304 5.96996C103.728 8.5503 102.285 12.0503 102.295 15.6965C102.305 23.279 108.459 29.4184 116.041 29.4109C123.624 29.4035 129.765 23.2521 129.761 15.6696ZM115.972 7.45684C120.516 7.42374 124.228 11.0778 124.267 15.622C124.287 17.8118 123.434 19.9194 121.896 21.4782C120.358 23.037 118.262 23.9184 116.072 23.9271C111.527 23.9492 107.824 20.2862 107.797 15.742C107.769 11.1977 111.427 7.48994 115.972 7.45684Z" class="logo-svg" fill=""></path>
                        <path d="M166.633 12.51L174.207 3.99916C174.696 3.45161 175.206 2.92243 175.677 2.35284C176.006 1.92651 176.524 1.68894 177.062 1.71709C178.716 1.71709 180.369 1.71709 182.023 1.71709C182.249 1.75819 182.468 1.8351 182.67 1.94493C182.601 2.14523 182.506 2.33553 182.387 2.51085C179.102 6.21998 175.81 9.9242 172.513 13.6235C172.391 13.7632 172.285 13.9102 172.145 14.0902L175.592 18.8344C177.895 22.0021 180.197 25.171 182.497 28.3412C182.604 28.5435 182.68 28.7601 182.725 28.9843C182.516 29.0798 182.295 29.1454 182.067 29.179C180.498 29.179 178.925 29.179 177.352 29.179C176.652 29.229 175.98 28.8903 175.603 28.2971C172.825 24.4385 170.032 20.5934 167.225 16.7618C167.074 16.5524 166.912 16.3539 166.644 16.0269V16.839C166.644 20.5726 166.644 24.3075 166.644 28.0435C166.644 28.999 166.453 29.1864 165.501 29.1901C164.358 29.1901 163.215 29.1901 162.073 29.1901C161.371 29.1901 161.146 28.9733 161.146 28.2897C161.146 19.7347 161.146 11.181 161.146 2.62845C161.146 1.91921 161.334 1.73914 162.065 1.73547H165.619C166.468 1.73547 166.644 1.90451 166.644 2.78279C166.644 5.74225 166.644 8.70171 166.644 11.6612L166.633 12.51Z" class="logo-svg" fill=""></path>
                        <path d="M50.6161 15.148C51.3206 15.3822 52.0071 15.6671 52.6704 16.0005C54.3153 16.9493 55.3762 18.6585 55.4963 20.5536C55.8638 24.5261 53.9418 27.5358 50.1127 28.7448C46.787 29.7995 43.4759 29.7186 40.3119 28.0797C38.3716 27.0764 37.192 25.4448 36.571 23.3832C36.3946 22.7989 36.571 22.4903 37.17 22.3469C38.5958 22.0052 40.0326 21.7002 41.4548 21.34C41.6823 21.2422 41.9414 21.2499 42.1626 21.3612C42.3838 21.4725 42.5444 21.676 42.6013 21.917C42.9688 22.8541 43.4943 23.6625 44.538 23.9712C45.6144 24.3097 46.7689 24.3097 47.8453 23.9712C49.1866 23.5376 49.9142 22.3065 49.8701 20.6234C49.8334 19.2564 49.1609 18.3193 47.7351 18.0253C46.59 17.8405 45.4331 17.7385 44.2734 17.7203C43.4355 17.6726 43.2591 17.5366 43.2555 16.7171C43.2555 15.7176 43.2555 14.718 43.2555 13.7184C43.2555 13.0901 43.4796 12.8953 44.1007 12.8585C45.084 12.8445 46.0657 12.7721 47.0405 12.6417C48.6905 12.3514 49.488 11.3114 49.4218 9.75331C49.3667 8.44508 48.2495 7.34998 46.7686 7.15154C45.0745 6.92003 43.9206 7.46022 43.0938 8.94118C42.9111 9.36786 42.431 9.5823 41.9913 9.4336C40.5214 9.12492 39.0772 8.83093 37.622 8.52225C36.751 8.33851 36.5783 8.02615 36.909 7.18461C37.6427 5.15774 39.2356 3.55941 41.26 2.81892C44.5416 1.58786 47.8747 1.54743 51.0939 2.96592C54.8201 4.60121 56.2937 9.34908 54.2028 12.7336C53.3869 14.0676 52.1485 14.7878 50.6161 15.148Z" class="logo-svg" fill=""></path>
                        <path d="M91.2888 23.9337C93.9237 23.9337 96.4556 23.9558 98.9839 23.9337C100.019 23.8866 101.009 24.3647 101.615 25.2052C102.53 26.3812 103.489 27.5204 104.419 28.6853C104.529 28.8286 104.647 29.0822 104.588 29.2071C104.529 29.3321 104.261 29.4202 104.081 29.4202C98.2673 29.4202 92.4513 29.4202 86.6328 29.4202C86.4048 29.4484 86.1764 29.371 86.0125 29.21C85.8486 29.0489 85.7671 28.8219 85.7913 28.5934C85.7913 28.4501 85.7913 28.3068 85.7913 28.1635V3.17466C85.7913 2.07221 85.9236 1.94727 87.0224 1.94727C88.1211 1.94727 89.2272 1.94727 90.3297 1.94727C91.1161 1.94727 91.2925 2.13468 91.2925 2.93212V23.9337H91.2888Z" class="logo-svg" fill=""></path>
                        <path d="M24.723 18.392C23.0068 18.4876 21.3678 18.6125 19.7252 18.6493C18.9889 18.6419 18.3153 18.2332 17.9686 17.5836C16.4987 15.1851 15.0471 12.7781 13.614 10.3626C13.2567 9.75041 12.9448 9.11297 12.6806 8.45532C12.2873 7.48149 12.4858 6.53339 12.9525 5.62938C13.6213 4.32482 14.2901 3.02026 14.9773 1.72672C15.0912 1.51358 14.9773 1.72672 15.3632 1.04688C15.6076 1.24021 15.8187 1.47236 15.9879 1.73407C17.8547 5.2619 19.7142 8.79218 21.5663 12.3249C22.5266 14.1427 23.4809 15.9642 24.429 17.7894C24.5355 17.9621 24.6164 18.1422 24.723 18.392Z" class="logo-svg" fill=""></path>
                        <path d="M10.5467 15.9687C10.8958 16.5493 11.2191 17.1483 11.594 17.7106C12.2652 18.6462 12.3158 19.8914 11.7226 20.8783C10.4842 23.1714 9.24577 25.4645 7.9706 27.7392C7.47904 28.7066 6.53219 29.3604 5.45335 29.4774C3.7813 29.6648 2.10558 29.8191 0.308594 29.9992C3.18231 24.5384 5.9862 19.2173 8.80846 13.8594L9.96236 15.2668L10.5467 15.9687Z" class="logo-svg" fill=""></path>
                        <path d="M30.0163 29.5731L12.5977 29.9038C12.7153 29.7054 12.7887 29.5363 12.888 29.4151C13.6744 28.3126 14.4498 27.2102 15.2619 26.1555C15.9098 25.242 16.9569 24.6951 18.0768 24.6856C20.708 24.6635 23.3355 24.6856 25.9667 24.6856C26.268 24.6856 26.7751 24.6856 27.0691 24.7297C27.8408 24.7958 28.1201 25.2625 28.4178 25.9681C28.9286 27.1146 29.4504 28.2796 30.0163 29.5731Z" class="logo-svg" fill=""></path>
                        <path d="M0.102895 29.6396C0.0257238 28.4012 0.062472 26.4535 0 25.2298C0.00600686 25.0488 0.0564913 24.8721 0.146993 24.7153C2.46948 20.2467 4.79687 15.783 7.12916 11.3243C7.18428 11.2177 7.2541 11.1148 7.39007 10.8906C7.75755 11.8167 8.12503 12.6435 8.39697 13.4961C8.46312 13.7055 8.24263 14.0216 8.11401 14.2678C6.21045 17.8936 4.30199 21.5182 2.38863 25.1416" class="logo-svg" fill=""></path>
                        <path d="M12.3565 29.4958C12.1324 28.6359 11.989 27.7576 11.8016 27.008C11.793 26.8284 11.8506 26.6519 11.9633 26.5119C12.7203 25.4094 13.4884 24.3437 14.2527 23.267C14.7383 22.4921 15.5987 22.0332 16.5127 22.0617C18.9381 22.0764 21.3635 22.0421 23.7889 21.9588C24.9671 21.858 26.1025 22.4257 26.7288 23.4287C26.9272 23.7337 27.1661 24.013 27.3167 24.2114C24.4871 24.2114 21.6134 24.2114 18.7397 24.182C17.0317 24.091 15.412 24.9467 14.5247 26.409C13.8999 27.3902 13.1282 28.4375 12.3565 29.4958Z" class="logo-svg" fill=""></path>
                        <path d="M16.6409 16.7048C16.6409 16.7048 16.494 16.5101 16.369 16.3116C14.844 13.8605 12.8669 10.5385 11.1765 7.67947C10.493 6.51823 10.3056 5.33126 10.978 4.08182C11.6505 2.83238 12.2312 1.66011 12.8596 0.44742C12.9333 0.239853 13.104 0.0815481 13.3165 0.023653C13.529 -0.0342422 13.7564 0.0156122 13.9253 0.157109L14.9652 0.770804C14.0833 2.52737 13.194 4.23984 12.3561 5.9817C11.7498 7.23849 12.0474 8.48426 12.7015 9.60141C14.0428 11.9018 15.5752 14.4264 16.9423 16.6313L17.6772 17.7338L16.6409 16.7048Z" class="logo-svg" fill=""></path>
                        <path d="M10.4202 15.6362C9.79625 14.9327 9.2099 14.1967 8.66366 13.4313L7.9287 11.7262C7.82948 11.5608 7.58694 11.0905 7.50977 10.9141L8.72613 12.6817C8.88047 12.9499 9.65586 14.3353 10.4202 15.6362Z" class="logo-svg" fill=""></path>
                    </svg>